<svg width="24" height="24" viewBox="0 0 24 24" fill="none" xmlns="http://www.w3.org/2000/svg">
<circle cx="12" cy="12" r="11.5" fill="white" stroke="#EAECF0"/>
<g clip-path="url(#clip0_2934_28143)">
<path d="M16.1768 13.7036C16.1768 14.5226 15.8667 15.3111 15.3088 15.9107C15.3674 15.8456 15.4201 15.7755 15.4661 15.701C15.5018 15.6443 15.5333 15.585 15.5601 15.5235C15.5698 15.5033 15.5785 15.4825 15.5859 15.4613C15.5946 15.441 15.6022 15.4202 15.6087 15.3991C15.616 15.3795 15.6223 15.3593 15.6279 15.339C15.6335 15.3187 15.6394 15.2971 15.6439 15.2758L15.6464 15.2684C15.6513 15.2475 15.6551 15.2265 15.6593 15.2052C15.6635 15.1839 15.6674 15.1615 15.6709 15.1395C15.674 15.1192 15.6764 15.0989 15.6782 15.078C15.6831 15.03 15.6856 14.9819 15.6855 14.9337C15.6863 14.6691 15.6145 14.4093 15.478 14.1827C15.4482 14.1319 15.4149 14.0832 15.3784 14.037C15.3357 13.982 15.289 13.9302 15.2386 13.8822C15.1133 13.7605 14.9669 13.6625 14.8067 13.5929C14.7365 13.5618 14.6638 13.5368 14.5893 13.5181H14.5862L14.5603 13.5094L14.1826 13.3797L13.1947 13.0401C13.1916 13.0401 13.1874 13.0401 13.185 13.0401L13.1231 13.0173C12.9249 12.9387 12.7603 12.7934 12.6577 12.6064L12.2981 11.6846L11.8847 10.6307L11.8054 10.4273L11.7851 10.3861C11.762 10.3298 11.7501 10.2695 11.7502 10.2086C11.7493 10.1929 11.7493 10.1771 11.7502 10.1614C11.7576 10.0897 11.7817 10.0208 11.8206 9.96008C11.8595 9.8994 11.9121 9.84869 11.9742 9.81203C12.0362 9.77536 12.106 9.75375 12.1779 9.74895C12.2498 9.74415 12.3219 9.75627 12.3882 9.78436L14.2294 10.7278L14.5925 10.9134C14.7847 11.0276 14.9644 11.1617 15.1285 11.3135C15.7402 11.8738 16.1129 12.6479 16.1695 13.4755C16.1737 13.552 16.1768 13.6275 16.1768 13.7036Z" fill="url(#paint0_linear_2934_28143)"/>
<path d="M15.6846 14.9323C15.6846 15.0239 15.6761 15.1154 15.6594 15.2055C15.6545 15.2289 15.6496 15.2527 15.644 15.2754C15.6335 15.3173 15.6224 15.3579 15.6091 15.3988C15.6017 15.4197 15.5944 15.4407 15.5864 15.461C15.5783 15.4812 15.5692 15.5022 15.5605 15.5232C15.5337 15.5846 15.5023 15.644 15.4665 15.7007C15.4204 15.7751 15.3678 15.8452 15.3093 15.9103C15.0409 16.207 14.1299 16.7361 13.7941 16.9513L13.0488 17.4056C12.5026 17.7421 11.9861 17.9804 11.3365 17.9965C11.3058 17.9965 11.2757 17.9965 11.2457 17.9965C11.2037 17.9965 11.1621 17.9965 11.1209 17.994C10.5949 17.9738 10.0817 17.8259 9.62562 17.5631C9.16953 17.3003 8.78422 16.9304 8.50293 16.4855C8.24347 16.077 8.08003 15.615 8.0249 15.1342C8.06497 15.3578 8.15748 15.5687 8.29482 15.7497C8.43217 15.9306 8.61044 16.0764 8.81503 16.1751C9.01962 16.2738 9.24469 16.3227 9.4718 16.3176C9.6989 16.3125 9.92156 16.2536 10.1215 16.1459L10.1264 16.1434L10.1994 16.0997L10.4961 15.925L10.8739 15.7014V15.6909L10.9224 15.6619L14.3018 13.66L14.5618 13.5059L14.5877 13.5146H14.5908C14.6653 13.5332 14.738 13.5583 14.8082 13.5894C14.9684 13.659 15.1147 13.757 15.2401 13.8787C15.2904 13.9268 15.3372 13.9785 15.3798 14.0335C15.4163 14.0798 15.4496 14.1284 15.4794 14.1792C15.6151 14.4069 15.686 14.6673 15.6846 14.9323Z" fill="url(#paint1_linear_2934_28143)"/>
<path d="M10.8738 8.25073V15.7039L10.4947 15.9261L10.1977 16.1008L10.1246 16.1452C10.1229 16.1454 10.1214 16.1462 10.1201 16.1473C9.92016 16.2551 9.69753 16.3139 9.47045 16.319C9.24337 16.3242 9.01831 16.2754 8.81373 16.1767C8.60914 16.078 8.43086 15.9323 8.2935 15.7514C8.15613 15.5705 8.0636 15.3596 8.02348 15.136C8.01789 15.1049 8.0137 15.0728 8.0102 15.0417C8.00566 14.983 8.00251 14.9253 8.00146 14.867V6.48049C8.00154 6.39325 8.02534 6.30767 8.07031 6.23291C8.11527 6.15816 8.17972 6.09703 8.25675 6.05607C8.33378 6.01512 8.42049 5.99588 8.50761 6.0004C8.59474 6.00493 8.67899 6.03306 8.75136 6.08178L10.2214 7.04203C10.2294 7.04865 10.238 7.05461 10.2469 7.05985C10.4407 7.19214 10.5991 7.36983 10.7084 7.57741C10.8176 7.78499 10.8744 8.01615 10.8738 8.25073Z" fill="url(#paint2_linear_2934_28143)"/>
<g opacity="0.149">
<path d="M15.6846 14.9323C15.6846 15.0239 15.6761 15.1154 15.6594 15.2055C15.6545 15.2289 15.6496 15.2527 15.644 15.2754C15.6335 15.3173 15.6224 15.3579 15.6091 15.3988C15.6017 15.4197 15.5944 15.4407 15.5864 15.461C15.5783 15.4812 15.5692 15.5022 15.5605 15.5232C15.5337 15.5846 15.5023 15.644 15.4665 15.7007C15.4205 15.7751 15.3678 15.8453 15.3093 15.9103C15.0409 16.207 14.1299 16.7361 13.7941 16.9513L13.0488 17.4056C12.5026 17.7421 11.9861 17.9804 11.3365 17.9965C11.3058 17.9965 11.2757 17.9965 11.2457 17.9965C11.2037 17.9965 11.1621 17.9965 11.1209 17.994C10.5949 17.9738 10.0817 17.8259 9.62562 17.5631C9.16953 17.3003 8.78422 16.9304 8.50293 16.4855C8.24347 16.077 8.08003 15.615 8.0249 15.1342C8.06497 15.3578 8.15748 15.5687 8.29482 15.7497C8.43217 15.9306 8.61044 16.0764 8.81503 16.1751C9.01962 16.2738 9.24469 16.3227 9.4718 16.3176C9.6989 16.3125 9.92156 16.2536 10.1215 16.1459L10.1264 16.1434L10.1994 16.0997L10.4961 15.925L10.8739 15.7014V15.6909L10.9224 15.6619L14.3018 13.66L14.5618 13.5059L14.5877 13.5146H14.5908C14.6653 13.5332 14.738 13.5583 14.8082 13.5894C14.9684 13.659 15.1147 13.757 15.2401 13.8787C15.2904 13.9268 15.3372 13.9785 15.3798 14.0335C15.4163 14.0798 15.4496 14.1284 15.4794 14.1792C15.6151 14.4069 15.686 14.6673 15.6846 14.9323Z" fill="url(#paint3_linear_2934_28143)"/>
</g>
<g opacity="0.098">
<path d="M10.8738 8.25073V15.7039L10.4947 15.9261L10.1977 16.1008L10.1246 16.1452C10.1229 16.1454 10.1214 16.1462 10.1201 16.1473C9.92016 16.2551 9.69753 16.3139 9.47045 16.319C9.24337 16.3242 9.01831 16.2754 8.81373 16.1767C8.60914 16.078 8.43086 15.9323 8.2935 15.7514C8.15613 15.5705 8.0636 15.3596 8.02348 15.136C8.01789 15.1049 8.0137 15.0728 8.0102 15.0417C8.00566 14.983 8.00251 14.9253 8.00146 14.867V6.48049C8.00154 6.39325 8.02534 6.30767 8.07031 6.23291C8.11527 6.15816 8.17972 6.09703 8.25675 6.05607C8.33378 6.01512 8.42049 5.99588 8.50761 6.0004C8.59474 6.00493 8.67899 6.03306 8.75136 6.08178L10.2214 7.04203C10.2294 7.04865 10.238 7.05461 10.2469 7.05985C10.4407 7.19214 10.5991 7.36983 10.7084 7.57741C10.8176 7.78499 10.8744 8.01615 10.8738 8.25073Z" fill="url(#paint4_linear_2934_28143)"/>
</g>
</g>
<defs>
<linearGradient id="paint0_linear_2934_28143" x1="11.1106" y1="11.2989" x2="16.3736" y2="14.3404" gradientUnits="userSpaceOnUse">
<stop stop-color="#37BDFF"/>
<stop offset="0.18" stop-color="#33BFFD"/>
<stop offset="0.36" stop-color="#28C5F5"/>
<stop offset="0.53" stop-color="#15D0E9"/>
<stop offset="0.55" stop-color="#12D1E7"/>
<stop offset="0.59" stop-color="#1CD2E5"/>
<stop offset="0.77" stop-color="#42D8DC"/>
<stop offset="0.91" stop-color="#59DBD6"/>
<stop offset="1" stop-color="#62DCD4"/>
</linearGradient>
<linearGradient id="paint1_linear_2934_28143" x1="8.0264" y1="15.8612" x2="15.6901" y2="15.8612" gradientUnits="userSpaceOnUse">
<stop stop-color="#39D2FF"/>
<stop offset="0.15" stop-color="#38CEFE"/>
<stop offset="0.29" stop-color="#35C3FA"/>
<stop offset="0.43" stop-color="#2FB0F3"/>
<stop offset="0.55" stop-color="#299AEB"/>
<stop offset="0.58" stop-color="#2692EC"/>
<stop offset="0.76" stop-color="#1A6CF1"/>
<stop offset="0.91" stop-color="#1355F4"/>
<stop offset="1" stop-color="#104CF5"/>
</linearGradient>
<linearGradient id="paint2_linear_2934_28143" x1="9.44464" y1="16.5277" x2="9.44464" y2="6.28374" gradientUnits="userSpaceOnUse">
<stop stop-color="#1B48EF"/>
<stop offset="0.12" stop-color="#1C51F0"/>
<stop offset="0.32" stop-color="#1E69F5"/>
<stop offset="0.57" stop-color="#2190FB"/>
<stop offset="1" stop-color="#26B8F4"/>
</linearGradient>
<linearGradient id="paint3_linear_2934_28143" x1="9.54719" y1="17.7494" x2="14.2804" y2="13.0247" gradientUnits="userSpaceOnUse">
<stop stop-color="white"/>
<stop offset="0.37" stop-color="#FDFDFD"/>
<stop offset="0.51" stop-color="#F6F6F6"/>
<stop offset="0.6" stop-color="#EBEBEB"/>
<stop offset="0.68" stop-color="#DADADA"/>
<stop offset="0.75" stop-color="#C4C4C4"/>
<stop offset="0.81" stop-color="#A8A8A8"/>
<stop offset="0.86" stop-color="#888888"/>
<stop offset="0.91" stop-color="#626262"/>
<stop offset="0.95" stop-color="#373737"/>
<stop offset="0.99" stop-color="#090909"/>
<stop offset="1"/>
</linearGradient>
<linearGradient id="paint4_linear_2934_28143" x1="9.44464" y1="6.10432" x2="9.44464" y2="16.4251" gradientUnits="userSpaceOnUse">
<stop stop-color="white"/>
<stop offset="0.37" stop-color="#FDFDFD"/>
<stop offset="0.51" stop-color="#F6F6F6"/>
<stop offset="0.6" stop-color="#EBEBEB"/>
<stop offset="0.68" stop-color="#DADADA"/>
<stop offset="0.75" stop-color="#C4C4C4"/>
<stop offset="0.81" stop-color="#A8A8A8"/>
<stop offset="0.86" stop-color="#888888"/>
<stop offset="0.91" stop-color="#626262"/>
<stop offset="0.95" stop-color="#373737"/>
<stop offset="0.99" stop-color="#090909"/>
<stop offset="1"/>
</linearGradient>
<clipPath id="clip0_2934_28143">
<rect width="8.17682" height="12" fill="white" transform="translate(8 6)"/>
</clipPath>
</defs>
</svg>
