<svg width="24" height="24" viewBox="0 0 24 24" fill="none" xmlns="http://www.w3.org/2000/svg">
<circle cx="12" cy="12" r="11.5" fill="white" stroke="#EAECF0"/>
<g clip-path="url(#clip0_215_18950)">
<path d="M17.8125 12C17.8125 8.78906 15.2109 6.1875 12 6.1875C8.78906 6.1875 6.1875 8.78906 6.1875 12C6.1875 14.9011 8.31305 17.3058 11.0918 17.7422V13.6802H9.61523V12H11.0918V10.7194C11.0918 9.26273 11.959 8.45812 13.2872 8.45812C13.9233 8.45812 14.5884 8.57156 14.5884 8.57156V10.0013H13.8553C13.1334 10.0013 12.9082 10.4494 12.9082 10.909V12H14.5202L14.2624 13.6802H12.9082V17.7422C15.687 17.3058 17.8125 14.9011 17.8125 12Z" fill="#1977F3"/>
</g>
<defs>
<clipPath id="clip0_215_18950">
<rect width="12" height="12" fill="white" transform="translate(6 6)"/>
</clipPath>
</defs>
</svg>
