<svg width="24" height="24" viewBox="0 0 24 24" fill="none" xmlns="http://www.w3.org/2000/svg">
<rect x="0.5" y="0.5" width="23" height="23" rx="11.5" fill="white" stroke="#EAECF0"/>
<g clip-path="url(#clip0_215_18961)">
<path d="M18.2045 9.72461L16.7273 10.5267L15.25 11.9121V16.6663H17.3182C17.8077 16.6663 18.2045 16.2746 18.2045 15.7913V9.72461Z" fill="#4CAF50"/>
<path d="M5.79541 9.72461L6.86318 10.2234L8.74996 11.9121V16.6663H6.68177C6.19221 16.6663 5.79541 16.2746 5.79541 15.7913V9.72461Z" fill="#1E88E5"/>
<path d="M15.25 8.26666L12 10.6729L8.75004 8.26666L8.45459 9.95833L8.75004 11.9125L12 14.3187L15.25 11.9125L15.5455 9.95833L15.25 8.26666Z" fill="#E53935"/>
<path d="M5.79541 8.58659V9.72467L8.74996 11.9122V8.26634L7.82696 7.58355C7.60714 7.4208 7.34005 7.33301 7.06527 7.33301C6.36386 7.33301 5.79541 7.89417 5.79541 8.58659Z" fill="#C62828"/>
<path d="M18.2045 8.58659V9.72467L15.25 11.9122V8.26634L16.173 7.58355C16.3928 7.4208 16.6599 7.33301 16.9347 7.33301C17.6361 7.33301 18.2045 7.89417 18.2045 8.58659Z" fill="#FBC02D"/>
</g>
<defs>
<clipPath id="clip0_215_18961">
<rect width="12" height="14" fill="white" transform="translate(6 5)"/>
</clipPath>
</defs>
</svg>
