<svg width="24" height="24" viewBox="0 0 24 24" fill="none" xmlns="http://www.w3.org/2000/svg">
<path d="M23.5 12C23.5 18.3513 18.3513 23.5 12 23.5C5.64873 23.5 0.5 18.3513 0.5 12C0.5 5.64873 5.64873 0.5 12 0.5C18.3513 0.5 23.5 5.64873 23.5 12Z" fill="white" stroke="#DEE2E7"/>
<path fill-rule="evenodd" clip-rule="evenodd" d="M18.0001 12.0728C18.0001 11.6427 17.9612 11.2292 17.8888 10.8322H12.1226V13.1783H15.4176C15.2756 13.9364 14.8443 14.5788 14.1958 15.0089V16.5306H16.1745C17.3322 15.4748 18.0001 13.9199 18.0001 12.0728Z" fill="#4285F4"/>
<path fill-rule="evenodd" clip-rule="evenodd" d="M12.1221 18C13.7752 18 15.1611 17.4569 16.1741 16.5306L14.1954 15.0088C13.6472 15.3727 12.9459 15.5878 12.1221 15.5878C10.5275 15.5878 9.17779 14.5208 8.69634 13.0873H6.65088V14.6587C7.6583 16.6409 9.72881 18 12.1221 18Z" fill="#34A853"/>
<path fill-rule="evenodd" clip-rule="evenodd" d="M8.69667 13.0873C8.57422 12.7234 8.50464 12.3346 8.50464 11.9349C8.50464 11.5352 8.57422 11.1464 8.69667 10.7825V9.21112H6.65121C6.23655 10.0299 6 10.9562 6 11.9349C6 12.9136 6.23655 13.8399 6.65121 14.6587L8.69667 13.0873Z" fill="#FBBC05"/>
<path fill-rule="evenodd" clip-rule="evenodd" d="M12.1221 8.2821C13.021 8.2821 13.8281 8.58811 14.4626 9.1891L16.2186 7.44952C15.1583 6.47084 13.7724 5.86984 12.1221 5.86984C9.72881 5.86984 7.6583 7.22898 6.65088 9.21116L8.69634 10.7826C9.17779 9.349 10.5275 8.2821 12.1221 8.2821Z" fill="#EA4335"/>
</svg>
