<svg width="12" height="12" viewBox="0 0 12 12" fill="none" xmlns="http://www.w3.org/2000/svg">
<mask id="mask0_2932_28126" style="mask-type:alpha" maskUnits="userSpaceOnUse" x="0" y="0" width="12" height="12">
<circle cx="6" cy="6" r="6" fill="#D9D9D9"/>
</mask>
<g mask="url(#mask0_2932_28126)">
<path d="M6.00196 0C3.49701 0 2.76441 0.00258413 2.62201 0.0143973C2.10795 0.0571277 1.78807 0.138066 1.43959 0.311572C1.17102 0.444932 0.959215 0.599518 0.750177 0.816216C0.369479 1.2114 0.138753 1.69759 0.0552306 2.27551C0.0146229 2.55607 0.00280973 2.61329 0.000410179 4.04638C-0.000512724 4.52407 0.000410179 5.15275 0.000410179 5.99601C0.000410179 8.49893 0.00317889 9.23079 0.0151766 9.37292C0.0567073 9.87313 0.135154 10.1878 0.301277 10.5321C0.618755 11.191 1.2251 11.6857 1.93943 11.8703C2.18677 11.934 2.45995 11.969 2.81065 11.9857C2.95924 11.9921 4.47372 11.9967 5.98913 11.9967C7.50454 11.9967 9.01995 11.9949 9.16484 11.9875C9.57092 11.9684 9.80672 11.9367 10.0674 11.8694C10.4216 11.7785 10.7517 11.6115 11.0347 11.3799C11.3176 11.1483 11.5466 10.8577 11.7056 10.5284C11.8685 10.1925 11.9511 9.86575 11.9885 9.39165C11.9966 9.28829 12 7.64026 12 5.99444C12 4.34835 11.9963 2.70337 11.9882 2.6C11.9503 2.11825 11.8677 1.79431 11.6996 1.45191C11.5616 1.17163 11.4084 0.962311 11.186 0.74829C10.7892 0.369161 10.3037 0.138436 9.72514 0.0550051C9.44485 0.0144896 9.38901 0.00249184 7.95482 0H6.00196Z" fill="url(#paint0_radial_2932_28126)"/>
<path d="M6.00196 0C3.49701 0 2.76441 0.00258413 2.62201 0.0143973C2.10795 0.0571277 1.78807 0.138066 1.43959 0.311572C1.17102 0.444932 0.959215 0.599518 0.750177 0.816216C0.369479 1.2114 0.138753 1.69759 0.0552306 2.27551C0.0146229 2.55607 0.00280973 2.61329 0.000410179 4.04638C-0.000512724 4.52407 0.000410179 5.15275 0.000410179 5.99601C0.000410179 8.49893 0.00317889 9.23079 0.0151766 9.37292C0.0567073 9.87313 0.135154 10.1878 0.301277 10.5321C0.618755 11.191 1.2251 11.6857 1.93943 11.8703C2.18677 11.934 2.45995 11.969 2.81065 11.9857C2.95924 11.9921 4.47372 11.9967 5.98913 11.9967C7.50454 11.9967 9.01995 11.9949 9.16484 11.9875C9.57092 11.9684 9.80672 11.9367 10.0674 11.8694C10.4216 11.7785 10.7517 11.6115 11.0347 11.3799C11.3176 11.1483 11.5466 10.8577 11.7056 10.5284C11.8685 10.1925 11.9511 9.86575 11.9885 9.39165C11.9966 9.28829 12 7.64026 12 5.99444C12 4.34835 11.9963 2.70337 11.9882 2.6C11.9503 2.11825 11.8677 1.79431 11.6996 1.45191C11.5616 1.17163 11.4084 0.962311 11.186 0.74829C10.7892 0.369161 10.3037 0.138436 9.72514 0.0550051C9.44485 0.0144896 9.38901 0.00249184 7.95482 0H6.00196Z" fill="url(#paint1_radial_2932_28126)"/>
<path d="M6.00029 2C4.91395 2 4.77761 2.00475 4.35094 2.02417C3.9251 2.04367 3.63443 2.11108 3.3801 2.21C3.11701 2.31217 2.89384 2.44884 2.67151 2.67126C2.449 2.89359 2.31234 3.11676 2.20984 3.37976C2.11067 3.63418 2.04317 3.92494 2.024 4.35061C2.005 4.77728 2 4.9137 2 6.00004C2 7.08639 2.00483 7.2223 2.02417 7.64898C2.04375 8.07481 2.11117 8.36548 2.21 8.61982C2.31225 8.88291 2.44892 9.10607 2.67134 9.32841C2.89359 9.55091 3.11676 9.68791 3.37968 9.79008C3.63418 9.889 3.92494 9.95642 4.35069 9.97592C4.77736 9.99533 4.91361 10.0001 5.99988 10.0001C7.0863 10.0001 7.22222 9.99533 7.64889 9.97592C8.07473 9.95642 8.36573 9.889 8.62024 9.79008C8.88324 9.68791 9.10607 9.55091 9.32833 9.32841C9.55083 9.10607 9.6875 8.88291 9.79 8.6199C9.88833 8.36548 9.95583 8.07473 9.97583 7.64906C9.995 7.22239 10 7.08639 10 6.00004C10 4.9137 9.995 4.77736 9.97583 4.35069C9.95583 3.92485 9.88833 3.63418 9.79 3.37985C9.6875 3.11676 9.55083 2.89359 9.32833 2.67126C9.10582 2.44875 8.88332 2.31209 8.61999 2.21C8.36498 2.11108 8.07415 2.04367 7.64831 2.02417C7.22164 2.00475 7.0858 2 5.99912 2H6.00029ZM5.64145 2.72084C5.74796 2.72067 5.86679 2.72084 6.00029 2.72084C7.0683 2.72084 7.19489 2.72467 7.61664 2.74384C8.00665 2.76167 8.21831 2.82684 8.35932 2.88159C8.54598 2.95409 8.67907 3.04076 8.81899 3.18076C8.95899 3.32076 9.04566 3.4541 9.11832 3.64077C9.17307 3.7816 9.23833 3.99327 9.25608 4.38328C9.27524 4.80495 9.27941 4.93161 9.27941 5.99913C9.27941 7.06664 9.27524 7.1933 9.25608 7.61498C9.23824 8.00498 9.17307 8.21665 9.11832 8.35748C9.04582 8.54415 8.95899 8.67707 8.81899 8.81699C8.67899 8.95699 8.54607 9.04366 8.35932 9.11616C8.21848 9.17116 8.00665 9.23616 7.61664 9.25399C7.19497 9.27316 7.0683 9.27733 6.00029 9.27733C4.9322 9.27733 4.80561 9.27316 4.38394 9.25399C3.99394 9.23599 3.78227 9.17083 3.64118 9.11607C3.45452 9.04357 3.32118 8.95691 3.18118 8.81691C3.04118 8.6769 2.95451 8.5439 2.88184 8.35715C2.82709 8.21632 2.76184 8.00465 2.74409 7.61464C2.72492 7.19297 2.72109 7.0663 2.72109 5.99813C2.72109 4.92995 2.72492 4.80395 2.74409 4.38228C2.76192 3.99227 2.82709 3.7806 2.88184 3.6396C2.95434 3.45293 3.04118 3.3196 3.18118 3.1796C3.32118 3.03959 3.45452 2.95293 3.64118 2.88026C3.78219 2.82526 3.99394 2.76026 4.38394 2.74234C4.75295 2.72567 4.89595 2.72067 5.64145 2.71984V2.72084ZM8.13548 3.38501C8.04054 3.38501 7.94773 3.41317 7.86879 3.46592C7.78985 3.51867 7.72832 3.59365 7.692 3.68137C7.65567 3.76909 7.64618 3.86561 7.66471 3.95873C7.68325 4.05184 7.72898 4.13737 7.79612 4.20449C7.86327 4.27162 7.94882 4.31732 8.04194 4.33582C8.13506 4.35432 8.23158 4.34479 8.31929 4.30844C8.40699 4.27208 8.48195 4.21053 8.53467 4.13157C8.58739 4.05262 8.61552 3.9598 8.61549 3.86485C8.61549 3.59985 8.40048 3.38485 8.13548 3.38485V3.38501ZM6.00029 3.94585C4.86586 3.94585 3.9461 4.86561 3.9461 6.00004C3.9461 7.13447 4.86586 8.05381 6.00029 8.05381C7.13472 8.05381 8.05423 7.13447 8.05423 6.00004C8.05423 4.86561 7.13464 3.94585 6.00021 3.94585H6.00029ZM6.00029 4.66669C6.73663 4.66669 7.33364 5.26362 7.33364 6.00004C7.33364 6.73638 6.73663 7.33339 6.00029 7.33339C5.26387 7.33339 4.66694 6.73638 4.66694 6.00004C4.66694 5.26362 5.26387 4.66669 6.00029 4.66669Z" fill="white"/>
</g>
<defs>
<radialGradient id="paint0_radial_2932_28126" cx="0" cy="0" r="1" gradientUnits="userSpaceOnUse" gradientTransform="translate(3.18752 12.9207) rotate(-90) scale(11.8896 11.0613)">
<stop stop-color="#FFDD55"/>
<stop offset="0.1" stop-color="#FFDD55"/>
<stop offset="0.5" stop-color="#FF543E"/>
<stop offset="1" stop-color="#C837AB"/>
</radialGradient>
<radialGradient id="paint1_radial_2932_28126" cx="0" cy="0" r="1" gradientUnits="userSpaceOnUse" gradientTransform="translate(-2.01006 0.864224) rotate(78.6776) scale(5.31478 21.9132)">
<stop stop-color="#3771C8"/>
<stop offset="0.128" stop-color="#3771C8"/>
<stop offset="1" stop-color="#6600FF" stop-opacity="0"/>
</radialGradient>
</defs>
</svg>
