<svg width="42" height="42" viewBox="0 0 42 42" fill="none" xmlns="http://www.w3.org/2000/svg">
<path d="M38.1 21C39.1493 21 40.0098 21.8528 39.9051 22.8969C39.5953 25.9845 38.5326 28.9597 36.7979 31.5558C34.7102 34.6804 31.7428 37.1156 28.271 38.5537C24.7992 39.9918 20.9789 40.368 17.2933 39.6349C13.6076 38.9018 10.2222 37.0922 7.56497 34.435C4.90777 31.7778 3.0982 28.3924 2.36508 24.7067C1.63196 21.0211 2.00822 17.2008 3.44629 13.729C4.88435 10.2572 7.31963 7.28982 10.4442 5.20208C13.0403 3.46737 16.0155 2.40471 19.1031 2.09491C20.1472 1.99016 21 2.85066 21 3.9C21 4.94934 20.146 5.78776 19.1049 5.91859C16.7701 6.21197 14.5262 7.04475 12.5553 8.36166C10.0557 10.0319 8.10748 12.4058 6.95703 15.1832C5.80658 17.9606 5.50557 21.0169 6.09206 23.9654C6.67856 26.9139 8.12622 29.6223 10.252 31.748C12.3777 33.8738 15.0861 35.3214 18.0346 35.9079C20.9831 36.4944 24.0394 36.1934 26.8168 35.043C29.5942 33.8925 31.9681 31.9443 33.6383 29.4447C34.9552 27.4738 35.788 25.2299 36.0814 22.8951C36.2122 21.854 37.0507 21 38.1 21Z" fill="#101828"/>
</svg>
