<svg id="Layer_1" data-name="Layer 1" xmlns="http://www.w3.org/2000/svg" xmlns:xlink="http://www.w3.org/1999/xlink" viewBox="0 0 300 300"><defs><style>.cls-1{fill:url(#linear-gradient);}.cls-2{fill:#8a427a;opacity:0.3;isolation:isolate;}.cls-3{fill:url(#linear-gradient-2);}.cls-4{fill:url(#linear-gradient-3);}.cls-5{fill:url(#linear-gradient-4);}</style><linearGradient id="linear-gradient" x1="102.46" y1="-156.79" x2="223.36" y2="-156.79" gradientTransform="translate(0 273.89)" gradientUnits="userSpaceOnUse"><stop offset="0" stop-color="#ec93be"/><stop offset="1" stop-color="#d23c87"/></linearGradient><linearGradient id="linear-gradient-2" x1="154.09" y1="-123.92" x2="299.22" y2="-123.92" xlink:href="#linear-gradient"/><linearGradient id="linear-gradient-3" x1="1.2" y1="-156.75" x2="122.2" y2="-156.75" xlink:href="#linear-gradient"/><linearGradient id="linear-gradient-4" x1="52.91" y1="-123.8" x2="198.07" y2="-123.8" xlink:href="#linear-gradient"/></defs><title>logo-favicon</title><path class="cls-1" d="M223.36,48.16a36.58,36.58,0,0,1-2.14,12.12l-33,90.12L186.13,156l-11,30.23-4.42,12.12a35.18,35.18,0,0,1-66.07-24.17L137.66,84,155.14,36.1l.57-1.38c.25-.64.5-1.14.75-1.77.07,0,.07-.07.07-.13s.12-.19.19-.25h0l.88-1.7c.32-.57.69-1.14,1.07-1.71l3.66-4.8c.57-.63,1.2-1.26,1.83-1.83A21.84,21.84,0,0,1,165.87,21l1.13-.88a12.7,12.7,0,0,1,1.71-1.2l1.83-1.14a24.49,24.49,0,0,1,2.21-1.2l.19-.12c.63-.26,1.19-.57,1.83-.82l1.38-.57a15.07,15.07,0,0,1,1.52-.51l1-.31c1.26-.38,2.52-.63,3.78-.89l1.08-.19c.82-.12,1.64-.19,2.46-.25s1.57-.12,2.33-.12,1.58.06,2.34.12a17.09,17.09,0,0,1,2.46.25,8,8,0,0,1,1.07.19,27.35,27.35,0,0,1,3.79.89l.94.31a22.52,22.52,0,0,1,2.91,1.08c.63.25,1.2.5,1.83.82l.19.12c.75.38,1.51.76,2.21,1.2a11.62,11.62,0,0,1,1.83,1.14c.56.38,1.13.82,1.7,1.2a12.48,12.48,0,0,1,1.14.88,20.74,20.74,0,0,1,1.7,1.51c.63.57,1.2,1.2,1.83,1.83a30.44,30.44,0,0,1,3.66,4.8,14.08,14.08,0,0,1,1.07,1.71c.38.69.76,1.38,1.14,2.14s.5,1.14.76,1.77c.19.44.38.94.57,1.39A37.62,37.62,0,0,1,223.36,48.16Z"/><path class="cls-2" d="M225.32,47.15a32,32,0,0,1-1.9,7.7l-35.09,95.8-2.08,5.55-.12-.31L151.41,61.16a37.51,37.51,0,0,1-2.08-8.71L154,39.76l2.72-7.32h0l.88-1.7c.32-.57.69-1.14,1.07-1.7l3.66-4.8c.57-.63,1.2-1.26,1.83-1.83a21.88,21.88,0,0,1,1.71-1.52L167,20a14.82,14.82,0,0,1,1.71-1.2l1.83-1.13a20.35,20.35,0,0,1,2.21-1.2l.19-.13c.63-.25,1.19-.57,1.83-.82l1.38-.57a12.85,12.85,0,0,1,1.52-.5l1-.32c1.26-.38,2.52-.63,3.78-.88l1.08-.19c.82-.13,1.64-.19,2.46-.25s1.57-.13,2.33-.13,1.58.06,2.34.13a15.78,15.78,0,0,1,2.46.25,5.72,5.72,0,0,1,1.07.19,27.3,27.3,0,0,1,3.79.88l.94.32a22.48,22.48,0,0,1,2.91,1.07c.63.25,1.2.5,1.83.82l.19.13a22.4,22.4,0,0,1,2.21,1.2,10.87,10.87,0,0,1,1.83,1.13c.56.38,1.13.82,1.7,1.2.38.25.76.57,1.14.88a20.94,20.94,0,0,1,1.7,1.52c.63.57,1.2,1.2,1.83,1.83a29.55,29.55,0,0,1,3.66,4.8,14,14,0,0,1,1.07,1.7c.38.69.76,1.39,1.14,2.14s.5,1.14.76,1.77c.19.44.38,1,.56,1.39Z"/><path class="cls-3" d="M275.05,285.08a35.16,35.16,0,0,1-45.12-20.83v-.06l-41.6-113.48-.12-.31L155.14,60.21A34.61,34.61,0,0,1,154,39.83c.32-1.27.7-2.53,1.14-3.79l.57-1.39c.25-.63.5-1.13.75-1.77.07,0,.07-.06.07-.12s.12-.19.19-.32l.88-1.7c.32-.57.69-1.14,1.07-1.7l3.66-4.8c.57-.63,1.2-1.26,1.83-1.83a21.88,21.88,0,0,1,1.71-1.52L167,20a14.82,14.82,0,0,1,1.71-1.2l1.83-1.13a20.35,20.35,0,0,1,2.21-1.2l.19-.13c.63-.25,1.19-.57,1.83-.82l1.38-.57a12.85,12.85,0,0,1,1.52-.5l1-.32c1.26-.38,2.52-.63,3.78-.88l1.08-.19c.82-.13,1.64-.19,2.46-.25s1.57-.13,2.33-.13,1.58.06,2.34.13a15.78,15.78,0,0,1,2.46.25,5.72,5.72,0,0,1,1.07.19,27.3,27.3,0,0,1,3.79.88l.94.32a22.48,22.48,0,0,1,2.91,1.07c.63.25,1.2.5,1.83.82l.19.13a22.4,22.4,0,0,1,2.21,1.2,10.87,10.87,0,0,1,1.83,1.13c.56.38,1.13.82,1.7,1.2.38.25.76.57,1.14.88a20.94,20.94,0,0,1,1.7,1.52c.63.57,1.2,1.2,1.83,1.83a29.55,29.55,0,0,1,3.66,4.8,14,14,0,0,1,1.07,1.7c.38.69.76,1.39,1.14,2.14s.5,1.14.76,1.77c.19.44.38,1,.56,1.39l4.11,11.11L295.94,240A35.16,35.16,0,0,1,275.05,285.08Z"/><path class="cls-4" d="M24.31,219.19h0A35.19,35.19,0,0,1,3.36,174.06h0L54,36A35.19,35.19,0,0,1,99.1,15.09h0a35.18,35.18,0,0,1,21,45.12v.07l-50.55,138a35.28,35.28,0,0,1-45.19,20.95Z"/><path class="cls-2" d="M124.09,47.15a32,32,0,0,1-1.9,7.7L87.1,150.65,85,156.2l-.12-.31L50.18,61.16a37.51,37.51,0,0,1-2.08-8.71l4.61-12.69,2.78-7.25h0Z"/><path class="cls-5" d="M173.88,285.08h0a35.25,35.25,0,0,0,21-45.13h0L120.05,36A35.19,35.19,0,0,0,74.92,15.09h0A35.18,35.18,0,0,0,54,60.28h0l74.72,203.91a35.2,35.2,0,0,0,45.19,20.89Z"/></svg>