<svg width="14" height="14" viewBox="0 0 14 14" fill="none" xmlns="http://www.w3.org/2000/svg">
<g clip-path="url(#clip0_4766_37413)">
<path d="M11.6673 12.8333C11.9895 12.8333 12.2507 12.5722 12.2507 12.25C12.2507 11.9278 11.9895 11.6667 11.6673 11.6667C11.3452 11.6667 11.084 11.9278 11.084 12.25C11.084 12.5722 11.3452 12.8333 11.6673 12.8333Z" fill="#101828" stroke="#101828" stroke-width="1.1" stroke-linecap="round" stroke-linejoin="round"/>
<path d="M5.24935 12.8333C5.57152 12.8333 5.83268 12.5722 5.83268 12.25C5.83268 11.9278 5.57152 11.6667 5.24935 11.6667C4.92718 11.6667 4.66602 11.9278 4.66602 12.25C4.66602 12.5722 4.92718 12.8333 5.24935 12.8333Z" fill="#101828" stroke="#101828" stroke-width="1.1" stroke-linecap="round" stroke-linejoin="round"/>
<path d="M0.583984 0.583344H2.91732L4.48065 8.39418C4.53399 8.66274 4.6801 8.90399 4.89339 9.07568C5.10667 9.24738 5.37356 9.33859 5.64732 9.33334H11.3173C11.5911 9.33859 11.858 9.24738 12.0713 9.07568C12.2845 8.90399 12.4306 8.66274 12.484 8.39418L13.4173 3.50001H3.50065" stroke="#101828" stroke-width="1.1" stroke-linecap="round" stroke-linejoin="round"/>
</g>
<defs>
<clipPath id="clip0_4766_37413">
<rect width="14" height="14" fill="white"/>
</clipPath>
</defs>
</svg>
